# xmcd
# 
# Track frame offsets:
#     150
#     10928
#     18549
#     26597
#     31700
#     42885
#     50892
#     62165
#     71944
#     81718
#     88018
#     97024
# 
# Disc length: 1386
# 
# Revision: 4
# Processed by: cddbd v1.5.2PL0 Copyright (c) Steve Scherf et al.
# Submitted via: fre:ac v1.0.17
# 
DISCID=9905680c,a505680c
DTITLE=Better Than A Thousand - Value Driven
DYEAR=1998
DGENRE=Hardcore
TTITLE0=Demand Independence
TTITLE1=Born To Give
TTITLE2=Self Worth
TTITLE3=Poison In Your Brain
TTITLE4=I'll Not Resist
TTITLE5=Crisis of Man
TTITLE6=Once Again
TTITLE7=Like the Wind
TTITLE8=Power Within
TTITLE9=Transformation
TTITLE10=We Must Believe
TTITLE11=Tweve
EXTD=
EXTT0=
EXTT1=
EXTT2=
EXTT3=
EXTT4=
EXTT5=
EXTT6=
EXTT7=
EXTT8=
EXTT9=
EXTT10=
EXTT11=
PLAYORDER=
